<?xml version="1.0" encoding="UTF-8"?>
<svg width="104px" height="58px" viewBox="0 0 104 58" version="1.1" xmlns="http://www.w3.org/2000/svg" xmlns:xlink="http://www.w3.org/1999/xlink">
    <!-- Generator: sketchtool 52.6 (67491) - http://www.bohemiancoding.com/sketch -->
    <title>9A2C703B-3EAA-4DC9-ABA5-E47133AF6D47</title>
    <desc>Created with sketchtool.</desc>
    <defs>
        <polygon id="path-1" points="0.424528481 0.475903614 16.2171108 0.475903614 16.2171108 33.2672289 0.424528481 33.2672289"></polygon>
        <polygon id="path-3" points="0.161242468 0.432590361 19.6995949 0.432590361 19.6995949 20.981988 0.161242468 20.981988"></polygon>
        <polygon id="path-5" points="0.459706329 0.134819277 46.1970481 0.134819277 46.1970481 16.8674699 0.459706329 16.8674699"></polygon>
    </defs>
    <g id="Symbols" stroke="none" stroke-width="1" fill="none" fill-rule="evenodd">
        <g id="Logo_FutureEats_invert">
            <polygon id="Path" fill="#E8222E" points="5.73647626 5 4.71719267 9.78798603 9.97948315 9.78798603 11 5"></polygon>
            <polygon id="Path" fill="#E8222E" points="4.20724256 12.1545469 0 32 5.26290711 32 9.46953305 12.1545469"></polygon>
            <g id="Group-4" transform="translate(7.000000, 4.000000)">
                <mask id="mask-2" fill="white">
                    <use xlink:href="#path-1"></use>
                </mask>
                <g id="Clip-3"></g>
                <path d="M16.2171108,0.582891566 L15.3103449,4.71060241 C15.0322373,4.67506024 14.5552184,4.64795181 13.8780601,4.62987952 C13.2009019,4.61301205 12.6962563,4.76060241 12.3641234,5.07506024 C12.0313766,5.38951807 11.8287816,5.73590361 11.7563386,6.11542169 C11.672231,6.49554217 11.5506741,7.0413253 11.3941234,7.75277108 L14.7848259,7.75277108 L14.0045285,11.3292771 L10.6144399,11.3292771 L5.57350949,33.2672289 L0.424528481,33.2672289 L5.46484494,11.3292771 L2.58185759,11.3292771 L3.36154114,7.75277108 L6.19050316,7.75277108 L6.46185759,6.50759036 C6.90940823,4.43168675 7.57428797,3.00216867 8.45649684,2.21963855 C9.45964873,1.05698795 11.3941234,0.475662651 14.258693,0.475662651 C14.5853006,0.475662651 14.8781424,0.484698795 15.1384462,0.502771084 C15.3975222,0.520843373 15.7572816,0.546746988 16.2171108,0.582891566" id="Fill-2" fill="#E8222E" mask="url(#mask-2)"></path>
            </g>
            <path d="M40.7531759,20.9068675 L41.5328595,17.2948193 L44.2887646,17.2948193 L45.4674987,11.886988 L50.5802582,11.886988 L49.4015241,17.2948193 L52.611119,17.2948193 L51.8314354,20.9068675 L48.6224544,20.9068675 L46.3920684,31.1550602 C46.2226253,31.9496386 46.2195557,32.4454217 46.3828595,32.6406024 C46.5461633,32.8363855 47.1533342,32.9345783 48.2049861,32.9345783 C48.3621506,32.9345783 48.5285241,32.9315663 48.7034924,32.9255422 C48.8790747,32.9195181 49.0571127,32.9104819 49.2388342,32.8984337 L48.4045114,36.6881928 L45.9389924,36.7773494 C43.4845241,36.8598795 41.9073532,36.4454217 41.2062519,35.5315663 C40.7593152,34.9508434 40.6623152,34.0550602 40.9164797,32.8454217 L43.509081,20.9068675 L40.7531759,20.9068675 Z" id="Fill-5" fill="#E8222E"></path>
            <path d="M86.2728816,11.1476506 L85.1487867,16.3428313 C84.8344576,16.3072892 84.5502108,16.2837952 84.2960462,16.271747 C84.0424956,16.2603012 83.836831,16.2536747 83.6796665,16.2536747 C81.6009196,16.2536747 80.0593563,16.9181325 79.0562044,18.2464458 C78.4999892,18.9940361 78.0524386,20.1446386 77.7141665,21.698253 L75.7201411,30.9675301 L70.5165209,30.9675301 L74.7047108,11.574759 L79.6369766,11.574759 L78.9113184,14.9548795 C79.9869133,13.6621084 80.8697361,12.7789759 81.5585589,12.3042771 C82.7072108,11.5096988 84.0547741,11.1121084 85.6012487,11.1121084 C85.6988627,11.1121084 85.7799006,11.1151205 85.8468184,11.1211446 C85.9131222,11.1271687 86.0549386,11.1356024 86.2728816,11.1476506" id="Fill-7" fill="#E8222E"></path>
            <g id="Group-11" transform="translate(83.740506, 10.626506)">
                <mask id="mask-4" fill="white">
                    <use xlink:href="#path-3"></use>
                </mask>
                <g id="Clip-10"></g>
                <path d="M6.34564177,8.70548193 L14.3776101,8.70548193 C14.5826608,7.36512048 14.386819,6.34825301 13.788243,5.65427711 C13.190281,4.9603012 12.3406101,4.61331325 11.2410722,4.61331325 C10.0439203,4.61331325 9.03831266,4.98078313 8.22179367,5.7163253 C7.40588861,6.45186747 6.7803,7.44825301 6.34564177,8.70548193 M19.0372937,4.20427711 C19.5689519,5.35487952 19.7807557,6.68921687 19.6720911,8.20728916 C19.6242051,9.09644578 19.406262,10.3777711 19.0194899,12.0506627 L5.49351519,12.0506627 C5.14235063,13.9958434 5.4683443,15.3596988 6.47272405,16.1428313 C7.07621139,16.6283735 7.87983797,16.871747 8.8836038,16.871747 C9.94753418,16.871747 10.878243,16.5753614 11.6763443,15.981988 C12.0987241,15.6621084 12.5161924,15.2169277 12.9275215,14.648253 L18.2035848,14.648253 C17.8161987,15.798253 16.9524076,16.9675301 15.6103696,18.1524699 C13.5070658,20.0386145 10.9322684,20.981988 7.88659114,20.981988 C5.37195823,20.981988 3.32636329,20.1868072 1.74919241,18.5976506 C0.172021519,17.0078916 -0.230712658,14.4229518 0.542831646,10.8410241 C1.26848987,7.48379518 2.69156582,4.9096988 4.81328734,3.11873494 C6.93439494,1.32777108 9.37904051,0.432590361 12.147838,0.432590361 C13.7913127,0.432590361 15.2082494,0.735 16.3998759,1.33981928 C17.5896608,1.94463855 18.4694139,2.89945783 19.0372937,4.20427711" id="Fill-9" fill="#E8222E" mask="url(#mask-4)"></path>
            </g>
            <path d="M23.4322911,11.7563253 L21.0171139,22.8737952 C20.224538,28.0930723 23.7748608,31.6087349 28.6911646,31.6087349 C33.6074684,31.6087349 37.3757342,28.2816265 38.8209114,22.8737952 L41.273538,11.7563253 L23.4322911,11.7563253 Z" id="Fill-12" fill="#E8222E"></path>
            <path d="M55.1372937,11.7563253 L52.7221165,22.8737952 C51.9295405,28.0930723 55.4798633,31.6087349 60.3961671,31.6087349 C65.3124709,31.6087349 69.0807367,28.2816265 70.5259139,22.8737952 L72.9785405,11.7563253 L55.1372937,11.7563253 Z" id="Fill-14" fill="#E8222E"></path>
            <g id="Group-18" transform="translate(21.120253, 37.132530)">
                <mask id="mask-6" fill="white">
                    <use xlink:href="#path-5"></use>
                </mask>
                <g id="Clip-17"></g>
                <path d="M0.459706329,0.134819277 C0.459706329,0.134819277 12.2777443,21.369759 35.7603392,3.5986747 L31.1559089,0.134819277 L46.1970481,0.134819277 L43.5105165,16.0986747 L40.2112886,10.5263855 C40.2112886,10.5263855 35.6068582,14.5522892 28.5467316,16.1203614 C18.8105101,18.283012 5.26366203,16.5468675 0.459706329,0.134819277" id="Fill-16" fill="#E8222E" mask="url(#mask-6)"></path>
            </g>
        </g>
    </g>
</svg>